<svg width="290.6" height="34" viewBox="0 0 290.6 34" xmlns="http://www.w3.org/2000/svg"><g id="svgGroup" stroke-linecap="round" fill-rule="evenodd" font-size="9pt" stroke="#000" stroke-width="0.1mm" fill="#c40f0f" style="stroke:#000;stroke-width:0.1mm;fill:#c40f0f"><path d="M 289.9 0.5 L 290.6 2.45 L 286.2 3.5 Q 285.85 9.1 285.625 13.975 Q 285.4 18.85 285.15 22.55 Q 284.95 25.7 283.725 27.85 Q 282.5 30 280.625 31.3 Q 278.75 32.6 276.5 33.2 Q 274.25 33.8 272 33.8 Q 268.35 33.8 265.35 32.8 Q 262.35 31.8 260.475 29.525 Q 258.6 27.25 258.15 23.35 Q 257.9 21 257.85 17.85 Q 257.8 14.7 257.8 11.075 Q 257.8 7.45 257.7 3.75 L 253.2 2.45 L 253.8 0.5 Q 255.35 0.55 257.425 0.625 Q 259.5 0.7 261.45 0.7 Q 263.9 0.7 265.85 0.625 L 269.1 0.5 L 269.7 2.45 L 265.25 3.75 Q 265.1 7.65 265.1 11.35 Q 265.1 15.1 265.225 18.075 Q 265.35 21.05 265.45 22.6 Q 265.8 26.4 267.725 28.4 Q 269.65 30.4 273.15 30.4 Q 276.85 30.4 279.025 28.525 Q 281.2 26.65 281.65 22.55 Q 281.75 21.45 281.8 19.625 Q 281.85 17.8 281.85 15.7 Q 281.85 13.05 281.775 9.825 Q 281.7 6.6 281.45 3.5 L 276.95 2.45 L 277.65 0.5 Q 279.15 0.6 280.75 0.65 Q 282.35 0.7 283.65 0.7 Q 285.25 0.7 287.1 0.625 Q 288.95 0.55 289.9 0.5 Z M 63.85 1.85 Q 64.85 1.05 65.5 0.5 Q 64.55 0.55 62.875 0.6 Q 61.2 0.65 60 0.65 Q 57 0.65 53.9 0.5 L 53.3 2.45 L 58.5 3.8 Q 58.6 6.75 58.675 9.625 Q 58.75 12.5 58.75 15.45 Q 58.75 19.05 58.625 22.775 Q 58.5 26.5 58.25 30.55 L 53.2 31.6 L 53.85 33.5 Q 55.4 33.45 57.125 33.4 Q 58.85 33.35 60.35 33.35 Q 62 33.35 63.9 33.375 Q 65.8 33.4 67.15 33.5 L 67.85 31.6 L 62.8 30.55 Q 62.45 25.65 62.3 22.15 Q 62.15 18.65 62.15 15.55 L 62.15 9.075 L 62.15 5.1 L 65.5 0.5 Q 64.85 1.05 63.85 1.85 Q 62.85 2.65 62.025 3.9 Q 61.2 5.15 60.95 7 Q 63.5 10.4 65.9 13.375 Q 68.3 16.35 70.75 19.375 Q 73.2 22.4 75.875 25.95 Q 78.55 29.5 81.65 34 L 82.15 34 L 82.95 23.55 Q 79.85 19.5 76.875 15.8 Q 73.9 12.1 71.05 8.375 Q 68.2 4.65 65.5 0.5 M 152.4 1.85 Q 153.4 1.05 154.05 0.5 Q 153.1 0.55 151.425 0.6 Q 149.75 0.65 148.55 0.65 Q 145.55 0.65 142.45 0.5 L 141.85 2.45 L 147.05 3.8 Q 147.15 6.75 147.225 9.625 Q 147.3 12.5 147.3 15.45 Q 147.3 19.05 147.175 22.775 Q 147.05 26.5 146.8 30.55 L 141.75 31.6 L 142.4 33.5 Q 143.95 33.45 145.675 33.4 Q 147.4 33.35 148.9 33.35 Q 150.55 33.35 152.45 33.375 Q 154.35 33.4 155.7 33.5 L 156.4 31.6 L 151.35 30.55 Q 151 25.65 150.85 22.15 Q 150.7 18.65 150.7 15.55 L 150.7 9.075 L 150.7 5.1 L 154.05 0.5 Q 153.4 1.05 152.4 1.85 Q 151.4 2.65 150.575 3.9 Q 149.75 5.15 149.5 7 Q 152.05 10.4 154.45 13.375 Q 156.85 16.35 159.3 19.375 Q 161.75 22.4 164.425 25.95 Q 167.1 29.5 170.2 34 L 170.7 34 L 171.5 23.55 Q 168.4 19.5 165.425 15.8 Q 162.45 12.1 159.6 8.375 Q 156.75 4.65 154.05 0.5 M 96.4 3.65 L 91.9 2.45 L 92.55 0.5 Q 94.35 0.6 96.05 0.65 Q 97.75 0.7 100.1 0.7 Q 102.25 0.7 104.55 0.65 Q 106.85 0.6 108.95 0.5 L 109.65 2.45 L 103.95 3.6 Q 103.9 7.75 103.9 11.1 L 103.9 17.85 Q 103.9 20.45 103.875 23.825 Q 103.85 27.2 103.95 30.05 Q 107.05 30.4 109.725 30.2 Q 112.4 30 114.55 29.05 L 115.7 23 L 118.9 23 Q 118.9 25.3 119.025 28.175 Q 119.15 31.05 119.35 33.5 Q 113.25 33.4 108.5 33.375 Q 103.75 33.35 100.3 33.35 Q 97.75 33.35 95.925 33.4 Q 94.1 33.45 92.55 33.5 L 91.95 31.6 L 96.4 30.55 Q 96.5 26.6 96.575 23.675 Q 96.65 20.75 96.65 18.35 Q 96.65 14.95 96.675 11.325 Q 96.7 7.7 96.4 3.65 Z M 250.95 31.6 L 250.25 33.5 Q 247.25 33.35 244.6 33.35 Q 242.9 33.35 241.175 33.4 Q 239.45 33.45 238.6 33.45 Q 237.25 31.1 236.1 29.2 Q 234.95 27.3 233.85 25.5 Q 232.75 23.7 231.475 21.725 Q 230.2 19.75 228.55 17.3 L 232.85 17.85 Q 235.95 14.1 239.075 10.65 Q 242.2 7.2 245.7 3.5 L 250.05 2.45 L 249.45 0.5 Q 246.85 0.65 243.45 0.65 Q 241.75 0.65 240.25 0.625 Q 238.75 0.6 237 0.5 L 236.4 2.45 L 240.45 3.5 Q 238.9 5.95 237.325 8.075 Q 235.75 10.2 233.7 12.375 Q 231.65 14.55 228.55 17.3 Q 229.5 16.6 230.7 15.9 Q 231.9 15.2 232.95 14.575 Q 234 13.95 234.35 13.55 Q 236.4 16.8 238.2 19.6 Q 240 22.4 241.875 25.05 Q 243.75 27.7 245.9 30.55 L 250.95 31.6 Z M 50.05 0.5 L 50.7 2.45 L 46.15 3.65 Q 46.15 7.9 46.125 11.15 Q 46.1 14.4 46.1 17.275 L 46.1 23.3 Q 46.1 26.45 46.15 30.55 L 50.7 31.6 L 50.05 33.5 Q 47.35 33.35 42.45 33.35 Q 40.15 33.35 38.2 33.4 Q 36.25 33.45 34.7 33.5 L 34.05 31.6 L 38.65 30.55 Q 38.75 26.5 38.825 23.35 Q 38.9 20.2 38.9 17.325 Q 38.9 14.45 38.85 11.175 Q 38.8 7.9 38.65 3.65 L 34.05 2.45 L 34.7 0.5 Q 36.65 0.6 38.5 0.65 Q 40.35 0.7 42.65 0.7 Q 44.7 0.7 46.7 0.625 Q 48.7 0.55 50.05 0.5 Z M 138.6 0.5 L 139.25 2.45 L 134.7 3.65 Q 134.7 7.9 134.675 11.15 Q 134.65 14.4 134.65 17.275 L 134.65 23.3 Q 134.65 26.45 134.7 30.55 L 139.25 31.6 L 138.6 33.5 Q 135.9 33.35 131 33.35 Q 128.7 33.35 126.75 33.4 Q 124.8 33.45 123.25 33.5 L 122.6 31.6 L 127.2 30.55 Q 127.3 26.5 127.375 23.35 Q 127.45 20.2 127.45 17.325 Q 127.45 14.45 127.4 11.175 Q 127.35 7.9 127.2 3.65 L 122.6 2.45 L 123.25 0.5 Q 125.2 0.6 127.05 0.65 Q 128.9 0.7 131.2 0.7 Q 133.25 0.7 135.25 0.625 Q 137.25 0.55 138.6 0.5 Z M 216.85 33.5 L 216.2 31.6 L 220.6 30.55 Q 220.7 27.75 220.75 25.675 Q 220.8 23.6 220.825 21.775 Q 220.85 19.95 220.85 17.9 Q 220.85 15.1 220.775 11.475 Q 220.7 7.85 220.6 3.75 L 216.2 2.45 L 216.8 0.5 Q 218.4 0.6 220.35 0.65 Q 222.3 0.7 224.6 0.7 Q 226.75 0.7 228.525 0.625 Q 230.3 0.55 232 0.5 L 232.55 2.45 L 228.1 3.75 Q 228.1 7.05 228.075 9.375 Q 228.05 11.7 228.05 13.65 L 228.05 17.9 L 228.05 23.7 Q 228.05 27.05 228.1 30.55 L 232.55 31.6 L 232 33.5 Q 229.3 33.35 224.4 33.35 Q 222.1 33.35 220.25 33.4 Q 218.4 33.45 216.85 33.5 Z M 197.3 0 Q 201.15 0 204.1 1.4 Q 207.05 2.8 209.075 5.175 Q 211.1 7.55 212.15 10.525 Q 213.2 13.5 213.2 16.65 Q 213.2 20.1 212.25 23.2 Q 211.3 26.3 209.375 28.75 Q 207.45 31.2 204.475 32.6 Q 201.5 34 197.5 34 Q 193.5 34 190.475 32.575 Q 187.45 31.15 185.45 28.725 Q 183.45 26.3 182.45 23.175 Q 181.45 20.05 181.45 16.6 Q 181.45 12.1 183.175 8.325 Q 184.9 4.55 188.425 2.275 Q 191.95 0 197.3 0 Z M 89.2 0.5 L 89.9 2.45 L 85.5 3.5 Q 85.2 8.8 85.075 13.3 Q 84.95 17.8 84.95 22.25 Q 84.95 25.05 85 27.925 Q 85.05 30.8 85.1 34 L 81.95 34 L 81.35 31.85 Q 81.5 29.3 81.575 27.125 Q 81.65 24.95 81.65 22.35 Q 81.65 18.2 81.475 13.425 Q 81.3 8.65 80.9 3.5 L 76.55 2.45 L 77.15 0.5 Q 78.7 0.55 80.1 0.625 Q 81.5 0.7 83.05 0.7 Q 84.65 0.7 86.25 0.65 Q 87.85 0.6 89.2 0.5 Z M 177.75 0.5 L 178.45 2.45 L 174.05 3.5 Q 173.75 8.8 173.625 13.3 Q 173.5 17.8 173.5 22.25 Q 173.5 25.05 173.55 27.925 Q 173.6 30.8 173.65 34 L 170.5 34 L 169.9 31.85 Q 170.05 29.3 170.125 27.125 Q 170.2 24.95 170.2 22.35 Q 170.2 18.2 170.025 13.425 Q 169.85 8.65 169.45 3.5 L 165.1 2.45 L 165.7 0.5 Q 167.25 0.55 168.65 0.625 Q 170.05 0.7 171.6 0.7 Q 173.2 0.7 174.8 0.65 Q 176.4 0.6 177.75 0.5 Z M 206.3 18.7 Q 206.3 15.6 205.575 12.75 Q 204.85 9.9 203.55 7.675 Q 202.25 5.45 200.425 4.15 Q 198.6 2.85 196.35 2.85 Q 193.55 2.85 191.775 4.575 Q 190 6.3 189.175 9.05 Q 188.35 11.8 188.35 15 Q 188.35 18.1 189.075 21 Q 189.8 23.9 191.15 26.2 Q 192.5 28.5 194.35 29.825 Q 196.2 31.15 198.4 31.15 Q 201.25 31.15 202.975 29.375 Q 204.7 27.6 205.5 24.75 Q 206.3 21.9 206.3 18.7 Z M 14.65 0.5 L 15.4 2.45 L 12.1 3.25 Q 12.85 4.9 13.925 7.475 Q 15 10.05 16.45 13.05 Q 17.9 16.05 19.65 19.15 L 13.6 23.6 Q 12.5 21.15 11.225 18.4 Q 9.95 15.65 8.675 12.875 Q 7.4 10.1 6.15 7.65 Q 4.9 5.2 3.85 3.35 L 0 2.45 L 0.65 0.5 Q 2.2 0.55 3.7 0.6 Q 5.2 0.65 7.15 0.65 Q 9.8 0.65 11.55 0.6 Q 13.3 0.55 14.65 0.5 Z M 30.8 0.5 L 31.55 2.45 L 27.55 3.5 Q 26.6 5.1 25.4 7.5 Q 24.2 9.9 22.9 12.65 Q 21.6 15.4 20.4 18.15 Q 19.2 20.9 18.3 23.25 L 16.3 19.55 Q 17.2 17.9 18.15 15.775 Q 19.1 13.65 19.975 11.375 Q 20.85 9.1 21.575 7.025 Q 22.3 4.95 22.8 3.4 L 18.65 2.45 L 19.35 0.5 Q 20.9 0.55 22.2 0.6 Q 23.5 0.65 25.2 0.65 Q 26.9 0.65 28.2 0.6 L 30.8 0.5 Z M 12.55 19.75 L 19.65 18.65 Q 19.6 21.3 19.575 23.275 Q 19.55 25.25 19.6 26.95 Q 19.65 28.65 19.7 30.55 L 24.75 31.6 L 24.1 33.5 Q 22.8 33.4 20.85 33.375 Q 18.9 33.35 15.95 33.35 Q 12.9 33.35 11.25 33.4 Q 9.6 33.45 8.1 33.5 L 7.45 31.6 L 12.55 30.55 Q 12.65 28.6 12.675 27.05 Q 12.7 25.5 12.675 23.8 Q 12.65 22.1 12.55 19.75 Z" vector-effect="non-scaling-stroke"/></g></svg>